<?xml version='1.0'?>
<!--
Bitly Generated QR Code
v4
33x33
-->
<svg width='656' height='656'
xmlns='http://www.w3.org/2000/svg'
xmlns:xlink='http://www.w3.org/1999/xlink'>
	<g id='background' style='fill:#ffffff' >
<rect x="0" y="0" width="656" height="656" />
</g>
<g id='pips' style='fill:#000000' >
<path d="M64,208L80,208L80,224L80,240L64,240L64,224L64,208M64,288L80,288L80,272L96,272L112,272L112,288L96,288L96,304L80,304L80,320L96,320L96,336L80,336L80,352L96,352L96,368L80,368L80,384L80,400L80,416L80,432L80,448L80,464L64,464L64,448L64,432L64,416L64,400L64,384L64,368L64,352L64,336L64,320L64,304L64,288M80,240L96,240L112,240L112,224L128,224L128,240L128,256L144,256L144,272L160,272L160,288L176,288L176,304L160,304L160,320L176,320L176,336L160,336L144,336L144,320L128,320L128,336L128,352L144,352L144,368L128,368L112,368L112,352L96,352L96,336L112,336L112,320L112,304L128,304L144,304L144,288L128,288L128,272L112,272L112,256L96,256L80,256L80,240M96,192L112,192L128,192L144,192L144,208L128,208L112,208L96,208L96,192M96,384L112,384L128,384L128,400L112,400L112,416L96,416L96,400L96,384M96,432L112,432L128,432L128,448L128,464L112,464L112,448L96,448L96,432M128,400L144,400L144,416L160,416L176,416L192,416L208,416L208,432L192,432L192,448L192,464L176,464L160,464L144,464L144,448L144,432L128,432L128,416L128,400M144,224L160,224L176,224L176,208L192,208L192,192L192,176L192,160L192,144L208,144L224,144L224,160L208,160L208,176L224,176L224,160L240,160L240,176L256,176L256,160L240,160L240,144L256,144L272,144L272,128L272,112L288,112L288,96L272,96L272,112L256,112L256,96L256,80L272,80L288,80L304,80L304,96L304,112L320,112L320,128L320,144L336,144L336,160L336,176L320,176L320,160L304,160L304,144L304,128L288,128L288,144L288,160L272,160L272,176L272,192L272,208L256,208L256,224L240,224L240,208L240,192L224,192L224,208L224,224L208,224L208,240L192,240L176,240L160,240L160,256L144,256L144,240L144,224M144,384L160,384L176,384L176,368L160,368L160,352L176,352L192,352L192,368L192,384L192,400L176,400L160,400L144,400L144,384M160,432L160,448L176,448L176,432L160,432M160,192L176,192L176,208L160,208L160,192M160,256L176,256L176,272L160,272L160,256M192,64L208,64L208,80L208,96L208,112L192,112L192,96L192,80L192,64M192,272L208,272L208,288L192,288L192,272M192,304L208,304L208,320L192,320L192,304M192,336L208,336L224,336L240,336L256,336L256,352L240,352L240,368L240,384L224,384L224,368L208,368L208,352L192,352L192,336M192,464L208,464L224,464L224,480L224,496L240,496L240,512L224,512L208,512L208,496L208,480L192,480L192,464M192,512L208,512L208,528L208,544L224,544L240,544L240,560L224,560L208,560L192,560L192,544L192,528L192,512M208,112L224,112L224,128L208,128L208,112M208,256L224,256L224,240L224,224L240,224L240,240L256,240L256,256L256,272L256,288L240,288L224,288L224,272L208,272L208,256M208,400L224,400L224,416L208,416L208,400M208,576L224,576L240,576L240,560L256,560L256,576L256,592L240,592L224,592L208,592L208,576M224,64L240,64L240,80L224,80L224,64M224,96L240,96L240,112L224,112L224,96M224,304L240,304L240,320L224,320L224,304M224,416L240,416L256,416L256,432L256,448L240,448L240,432L224,432L224,416M240,480L256,480L272,480L272,496L288,496L288,480L272,480L272,464L288,464L288,448L304,448L304,464L320,464L320,480L304,480L304,496L304,512L320,512L320,528L304,528L304,544L320,544L336,544L336,560L352,560L352,576L352,592L336,592L320,592L320,576L320,560L304,560L288,560L272,560L256,560L256,544L272,544L288,544L288,528L288,512L272,512L272,528L256,528L256,544L240,544L240,528L240,512L256,512L256,496L240,496L240,480M256,288L272,288L272,304L256,304L256,288M256,352L272,352L272,336L288,336L288,352L288,368L288,384L288,400L272,400L272,416L256,416L256,400L256,384L256,368L256,352M272,224L288,224L288,240L272,240L272,224M272,256L288,256L288,272L272,272L272,256M272,304L288,304L288,288L304,288L304,272L320,272L320,288L336,288L336,304L336,320L320,320L320,304L304,304L304,320L304,336L288,336L288,320L272,320L272,304M272,416L288,416L288,400L304,400L320,400L320,416L304,416L304,432L288,432L272,432L272,416M272,576L288,576L288,592L272,592L272,576M288,160L304,160L304,176L288,176L288,160M288,192L304,192L304,208L288,208L288,192M304,176L320,176L320,192L304,192L304,176M304,208L320,208L320,224L320,240L304,240L304,224L304,208M304,336L320,336L320,352L304,352L304,336M304,432L320,432L320,416L336,416L336,400L320,400L320,384L336,384L336,368L352,368L352,384L368,384L368,400L368,416L384,416L384,400L400,400L400,416L416,416L416,432L432,432L432,448L432,464L416,464L416,448L400,448L400,464L416,464L416,480L416,496L432,496L432,480L448,480L448,464L448,448L448,432L464,432L464,448L480,448L496,448L512,448L528,448L528,432L528,416L544,416L560,416L560,400L560,384L544,384L544,400L528,400L512,400L512,416L512,432L496,432L496,416L480,416L464,416L464,400L464,384L448,384L432,384L432,400L448,400L448,416L432,416L416,416L416,400L416,384L400,384L400,368L416,368L432,368L448,368L464,368L464,352L480,352L480,336L496,336L496,352L496,368L480,368L480,384L480,400L496,400L496,384L512,384L512,368L512,352L528,352L528,368L544,368L544,352L560,352L576,352L576,368L576,384L592,384L592,400L592,416L576,416L576,432L576,448L576,464L560,464L560,448L544,448L544,464L528,464L528,480L544,480L544,496L560,496L560,480L576,480L576,496L592,496L592,512L592,528L592,544L576,544L576,528L560,528L560,512L544,512L528,512L528,528L544,528L544,544L528,544L512,544L512,528L496,528L480,528L480,544L496,544L496,560L512,560L512,576L496,576L480,576L464,576L464,560L464,544L448,544L448,560L448,576L464,576L464,592L448,592L432,592L432,576L416,576L416,592L400,592L400,576L400,560L400,544L384,544L384,528L384,512L384,496L400,496L400,480L384,480L368,480L368,496L352,496L352,480L352,464L368,464L384,464L384,448L384,432L368,432L368,448L352,448L336,448L336,464L320,464L320,448L304,448L304,432M320,64L336,64L352,64L368,64L384,64L400,64L400,80L384,80L384,96L368,96L368,80L352,80L336,80L336,96L352,96L352,112L352,128L336,128L336,112L320,112L320,96L320,80L320,64M320,192L336,192L336,176L352,176L352,160L368,160L368,176L368,192L352,192L352,208L368,208L368,224L352,224L352,240L336,240L336,224L336,208L320,208L320,192M320,352L336,352L336,368L320,368L320,352M320,496L336,496L336,512L320,512L320,496M336,256L352,256L352,240L368,240L368,224L384,224L384,208L368,208L368,192L384,192L400,192L400,208L400,224L400,240L400,256L384,256L368,256L368,272L352,272L352,288L336,288L336,272L336,256M336,336L352,336L352,352L336,352L336,336M336,528L352,528L352,544L336,544L336,528M352,128L368,128L368,144L352,144L352,128M352,304L368,304L368,320L352,320L352,304M352,352L368,352L368,368L352,368L352,352M352,512L368,512L368,528L352,528L352,512M368,112L384,112L384,128L368,128L368,112M368,144L384,144L400,144L416,144L432,144L432,160L432,176L416,176L416,160L400,160L400,176L384,176L384,160L368,160L368,144M368,288L384,288L384,304L368,304L368,288M368,320L384,320L384,304L400,304L416,304L416,288L432,288L432,304L432,320L416,320L400,320L400,336L384,336L368,336L368,320M368,368L384,368L384,384L368,384L368,368M368,560L384,560L384,576L384,592L368,592L368,576L368,560M384,272L400,272L400,288L384,288L384,272M400,96L416,96L416,80L432,80L432,96L448,96L448,80L432,80L432,64L448,64L464,64L464,80L464,96L464,112L464,128L464,144L464,160L464,176L464,192L480,192L496,192L512,192L512,208L496,208L496,224L512,224L512,240L496,240L496,256L480,256L480,240L464,240L464,224L464,208L448,208L448,192L432,192L432,176L448,176L448,160L448,144L448,128L432,128L416,128L416,112L400,112L400,96M400,176L416,176L416,192L400,192L400,176M400,256L416,256L432,256L432,272L416,272L400,272L400,256M400,336L416,336L416,352L400,352L400,336M416,512L416,528L432,528L448,528L448,512L432,512L416,512M416,192L432,192L432,208L416,208L416,192M416,224L432,224L432,240L416,240L416,224M432,208L448,208L448,224L432,224L432,208M432,240L448,240L464,240L464,256L480,256L480,272L464,272L464,288L448,288L432,288L432,272L448,272L448,256L432,256L432,240M432,320L448,320L448,336L464,336L464,352L448,352L432,352L432,336L432,320M448,304L464,304L464,320L448,320L448,304M464,464L464,480L464,496L464,512L480,512L496,512L512,512L512,496L512,480L512,464L496,464L480,464L464,464M464,320L480,320L480,336L464,336L464,320M480,272L496,272L512,272L512,288L528,288L544,288L544,272L560,272L560,288L576,288L576,304L560,304L560,320L544,320L544,304L528,304L512,304L512,320L528,320L544,320L544,336L528,336L512,336L496,336L496,320L480,320L480,304L496,304L496,288L480,288L480,272M480,480L496,480L496,496L480,496L480,480M512,256L528,256L528,240L544,240L560,240L560,256L544,256L544,272L528,272L512,272L512,256M544,192L560,192L576,192L592,192L592,208L592,224L576,224L576,208L560,208L560,224L544,224L544,208L544,192M544,464L560,464L560,480L544,480L544,464M560,224L576,224L576,240L560,240L560,224M576,240L592,240L592,256L576,256L576,240M576,272L592,272L592,288L576,288L576,272M576,336L592,336L592,352L576,352L576,336M576,464L592,464L592,480L576,480L576,464Z" />
<path d="M4.7253,9.0689C6.179,9.0436 6.4149,7.6154 6.4149,6.769C6.4149,5.5163 5.775,5.0788 5,5C4.0425,5.4242 3.3403,6.146 3.2555,7.2606C3.2416,7.4443 3.237,7.6894 3.2516,7.9757C3.2906,8.7383 3.8493,9.0843 4.7253,9.0689 M 12.2447 10.8068 C 11.2047 10.8068 10.1118 10.1673 10.06 8.9707 C 8.8774 10.2223 7.0538 10.8186 4.7253 10.8186 C 2.3769 10.8186 1.396 9.2175 1.396 7.9703 C 1.4554 3.8126 1.3605 2.255 1.341 1.9353 C 1.3393 1.907 1.3381 1.8884 1.3377 1.8785 L 1.3373 1.8677 C 1.3313 1.7096 1.3224 1.4733 1.172 1.4572 C 1.0786 1.4472 1.0183 1.4757 0.911 1.6094 C 0.75 1.8233 0.425 1.908 0.2273 1.7937 C -0.0116 1.6555 -0.0562 1.3505 0.0647 1.0697 C 0.4002 0.3212 0.9379 -0.01 1.6625 0.0003 C 2.9146 0.0182 3.2738 0.8359 3.2738 1.8575 C 3.2738 1.8575 3.246 3.3292 3.246 4.1579 C 3.689 3.7969 4.3397 3.4098 5.4266 3.4098 C 7.6899 3.4098 9.1267 6.2118 7.6503 8.8925 C 9.5428 8.0197 9.9378 6.5164 10.0112 5.0238 L 10.0043 4.5203 C 10.0043 3.9552 10.3688 3.4767 10.9361 3.4767 C 11.5034 3.4767 11.8802 3.9877 11.86 4.5271 C 11.7919 6.3438 11.7644 7.5395 11.7644 8.1722 C 11.7644 8.5384 11.9642 9.0996 12.5555 9.0996 C 13.7134 9.0996 14.094 8.1922 14.1838 6.0595 C 14.1885 5.2642 14.1927 4.5997 14.1927 4.5997 C 13.6679 4.5997 13.4094 4.324 13.4094 3.9795 C 13.4094 3.635 13.683 3.3163 14.1321 3.3163 C 14.1321 3.3163 14.133 2.1182 14.133 1.622 C 14.133 1.0569 14.5715 0.5883 15.1388 0.5883 C 15.7062 0.5883 16.1567 1.0569 16.1567 1.622 C 16.1567 1.8095 16.1495 2.028 16.1416 2.2695 C 16.1315 2.5784 16.1201 2.9246 16.121 3.2909 L 16.2032 3.2905 H 16.2032 C 16.357 3.29 16.7051 3.2888 17.1681 3.2834 C 17.7198 3.2769 17.9445 3.5851 17.9445 3.9709 C 17.9445 4.3567 17.6475 4.626 17.2602 4.6276 C 16.9012 4.6291 16.1083 4.6247 16.1083 4.6247 C 16.0723 5.7674 16.0382 7.1451 16.0382 8.2475 C 16.0382 8.6451 16.3126 9.0995 16.9767 9.0995 C 18.3163 9.0995 18.8167 7.9092 18.9173 5.6498 C 18.9095 4.0766 18.8907 3.1653 18.8765 2.4785 V 2.4785 C 18.8666 1.9969 18.859 1.6258 18.859 1.2143 C 18.859 0.6493 19.3295 0.1442 19.8967 0.1442 C 20.4641 0.1442 20.8826 0.5977 20.8826 1.1627 C 20.8826 1.598 20.8651 2.1069 20.8413 2.8009 V 2.8009 V 2.801 C 20.801 3.9747 20.7425 5.6778 20.7195 8.4504 C 20.7165 8.8195 20.8967 9.0795 21.3748 9.0795 C 22.6524 9.0795 23.0066 7.6955 23.119 5.7625 C 23.1197 5.6695 23.1205 5.5785 23.1214 5.4891 L 23.1214 5.4887 C 23.1231 5.3054 23.1247 5.1289 23.1247 4.9561 C 23.1247 4.391 23.5011 3.9337 24.0686 3.9337 C 24.6359 3.9337 24.9694 4.4022 24.9694 4.9673 C 24.9694 5.3698 24.9562 5.7464 24.9427 6.1348 C 24.9307 6.4777 24.9184 6.8299 24.9146 7.2176 C 24.9047 8.2151 25.2455 9.0938 26.0756 9.0914 C 26.8726 9.0891 27.7479 8.7536 27.7691 7.045 C 27.7751 6.5701 27.7683 6.2053 27.7615 5.8371 V 5.837 V 5.8369 V 5.8368 C 27.7564 5.5642 27.7513 5.2897 27.7513 4.9673 C 27.7513 4.4022 28.1451 3.9337 28.7125 3.9337 C 29.2795 3.9337 29.6737 4.4022 29.6737 4.9673 C 29.6737 5.3051 29.6614 5.6415 29.6477 6.0145 V 6.0145 V 6.0146 V 6.0146 C 29.6307 6.4783 29.6117 6.9984 29.6117 7.6477 C 29.6117 7.6477 29.5769 10.0141 29.66 10.5378 C 29.9203 10.4512 30.2958 10.1968 30.6935 9.5802 C 30.9337 9.208 31.3928 9.1282 31.6758 9.293 C 32.0653 9.52 32.0514 9.9635 31.9058 10.2875 C 31.5298 11.1239 31.0409 11.6358 29.8047 12.0595 C 29.8086 13.4782 29.7098 15.5713 27.0868 15.9496 C 24.8405 16.2735 23.8244 14.9708 23.8211 13.8623 C 23.8157 12.112 25.5649 11.6022 28.0897 10.9665 L 28.0087 10.099 C 28.0087 10.099 27.4464 10.8364 26.0215 10.8008 C 24.9223 10.7733 24.1663 10.2543 23.7077 9.5213 C 23.1787 10.3901 22.3495 10.8105 21.1004 10.8105 C 20.2775 10.8105 19.4934 10.3758 19.1051 9.7457 C 18.5325 10.4308 17.7339 10.8015 16.6607 10.8015 C 15.7256 10.8015 15.0346 10.4786 14.6209 9.9746 C 14.087 10.5712 13.318 10.8068 12.2447 10.8068 Z M 28.2548 12.363 C 26.9786 12.6385 25.3798 13.0407 25.3983 13.8266 C 25.4158 14.5636 26.1767 14.6977 26.8111 14.5666 C 28.1286 14.2943 28.2816 13.5015 28.2548 12.363 Z M 11.9704 1.6249 C 11.9704 1.0544 11.5073 0.5932 10.9347 0.5932 C 10.3619 0.5932 9.8989 1.0544 9.8989 1.6249 C 9.8989 2.1953 10.3619 2.6566 10.9347 2.6566 C 11.5073 2.6566 11.9704 2.1953 11.9704 1.6249 Z" fill='#000000' transform='translate(520.000000, 556.000000) scale(2.250000, 2.250000)' />
</g>
<g id='corners-outer-1' style='fill:#000000' >
<path d="M64,64L80,64L96,64L112,64L128,64L144,64L160,64L176,64L176,80L176,96L176,112L176,128L176,144L176,160L176,176L160,176L144,176L128,176L112,176L96,176L80,176L64,176L64,160L64,144L64,128L64,112L64,96L64,80L64,64M80,80L80,96L80,112L80,128L80,144L80,160L96,160L112,160L128,160L144,160L160,160L160,144L160,128L160,112L160,96L160,80L144,80L128,80L112,80L96,80L80,80Z" />
</g>
<g id='corners-inner-1' style='fill:#000000' >
<path d="M96,96L112,96L128,96L144,96L144,112L144,128L144,144L128,144L112,144L96,144L96,128L96,112L96,96Z" />
</g>
<g id='corners-outer-2' style='fill:#000000' >
<path d="M480,64L496,64L512,64L528,64L544,64L560,64L576,64L592,64L592,80L592,96L592,112L592,128L592,144L592,160L592,176L576,176L560,176L544,176L528,176L512,176L496,176L480,176L480,160L480,144L480,128L480,112L480,96L480,80L480,64M496,80L496,96L496,112L496,128L496,144L496,160L512,160L528,160L544,160L560,160L576,160L576,144L576,128L576,112L576,96L576,80L560,80L544,80L528,80L512,80L496,80Z" />
</g>
<g id='corners-inner-2' style='fill:#000000' >
<path d="M512,96L528,96L544,96L560,96L560,112L560,128L560,144L544,144L528,144L512,144L512,128L512,112L512,96Z" />
</g>
<g id='corners-outer-3' style='fill:#000000' >
<path d="M64,480L80,480L96,480L112,480L128,480L144,480L160,480L176,480L176,496L176,512L176,528L176,544L176,560L176,576L176,592L160,592L144,592L128,592L112,592L96,592L80,592L64,592L64,576L64,560L64,544L64,528L64,512L64,496L64,480M80,496L80,512L80,528L80,544L80,560L80,576L96,576L112,576L128,576L144,576L160,576L160,560L160,544L160,528L160,512L160,496L144,496L128,496L112,496L96,496L80,496Z" />
</g>
<g id='corners-inner-3' style='fill:#000000' >
<path d="M96,512L112,512L128,512L144,512L144,528L144,544L144,560L128,560L112,560L96,560L96,544L96,528L96,512Z" />
</g>
</svg>
